# xmcd
#
# Track frame offsets:
#	150
#	20178
#	37985
#	65997
#
# Disc length: 1100 seconds
# Revision: 0
# Processed by: cddbd v1.5.2PL0 Copyright (c) Steve Scherf et al.
# Submitted via: dBpowerAMP V12.0
#
DISCID=36044a04
DTITLE=TBelly - TBelly TBelly with isrc
DYEAR=2013
DGENRE=Blues
TTITLE0=Mr TBelly Blues
TTITLE1=Where's The Doctor
TTITLE2=We Met On A Train
TTITLE3=I'll Get You Home
EXTD=
EXTT0=
EXTT1=
EXTT2=
EXTT3=
PLAYORDER=
